<mxfile host="app.diagrams.net" modified="2023-06-04T21:47:23.825Z" agent="Mozilla/5.0 (Windows NT 10.0; Win64; x64) AppleWebKit/537.36 (KHTML, like Gecko) Chrome/114.0.0.0 Safari/537.36 Edg/114.0.1823.37" etag="Zcu3A3S7fVTSuScTfLWq" version="21.3.3" type="device">
  <diagram name="Page-1" id="V26lLGb-AOziR8KH3icW">
    <mxGraphModel dx="684" dy="527" grid="1" gridSize="10" guides="1" tooltips="1" connect="1" arrows="1" fold="1" page="1" pageScale="1" pageWidth="850" pageHeight="1100" math="0" shadow="0">
      <root>
        <mxCell id="0" />
        <mxCell id="1" parent="0" />
        <mxCell id="eSfAmpDOkI9K0b-Jmtsm-30" value="" style="rounded=1;whiteSpace=wrap;html=1;" vertex="1" parent="1">
          <mxGeometry x="500" y="385" width="80" height="10" as="geometry" />
        </mxCell>
        <mxCell id="eSfAmpDOkI9K0b-Jmtsm-29" value="" style="rounded=1;whiteSpace=wrap;html=1;" vertex="1" parent="1">
          <mxGeometry x="310" y="400" width="100" height="10" as="geometry" />
        </mxCell>
        <mxCell id="eSfAmpDOkI9K0b-Jmtsm-28" value="" style="rounded=1;whiteSpace=wrap;html=1;" vertex="1" parent="1">
          <mxGeometry x="340" y="370" width="80" height="10" as="geometry" />
        </mxCell>
        <mxCell id="eSfAmpDOkI9K0b-Jmtsm-27" value="" style="rounded=1;whiteSpace=wrap;html=1;fillColor=#1ba1e2;fontColor=#ffffff;strokeColor=#006EAF;" vertex="1" parent="1">
          <mxGeometry x="340" y="200" width="10" height="170" as="geometry" />
        </mxCell>
        <mxCell id="eSfAmpDOkI9K0b-Jmtsm-26" value="" style="rounded=1;whiteSpace=wrap;html=1;fillColor=#1ba1e2;fontColor=#ffffff;strokeColor=#006EAF;" vertex="1" parent="1">
          <mxGeometry x="300" y="230" width="10" height="170" as="geometry" />
        </mxCell>
        <mxCell id="eSfAmpDOkI9K0b-Jmtsm-1" value="" style="rounded=1;whiteSpace=wrap;html=1;" vertex="1" parent="1">
          <mxGeometry x="400" y="360" width="120" height="60" as="geometry" />
        </mxCell>
        <mxCell id="eSfAmpDOkI9K0b-Jmtsm-5" value="" style="group" vertex="1" connectable="0" parent="1">
          <mxGeometry x="290" y="390" width="30" height="30" as="geometry" />
        </mxCell>
        <mxCell id="eSfAmpDOkI9K0b-Jmtsm-2" value="" style="ellipse;whiteSpace=wrap;html=1;aspect=fixed;" vertex="1" parent="eSfAmpDOkI9K0b-Jmtsm-5">
          <mxGeometry width="30" height="30" as="geometry" />
        </mxCell>
        <mxCell id="eSfAmpDOkI9K0b-Jmtsm-3" value="" style="endArrow=none;html=1;rounded=0;exitX=0.5;exitY=1;exitDx=0;exitDy=0;entryX=0.5;entryY=0;entryDx=0;entryDy=0;" edge="1" parent="eSfAmpDOkI9K0b-Jmtsm-5" source="eSfAmpDOkI9K0b-Jmtsm-2" target="eSfAmpDOkI9K0b-Jmtsm-2">
          <mxGeometry width="50" height="50" relative="1" as="geometry">
            <mxPoint x="60" y="50" as="sourcePoint" />
            <mxPoint x="110" as="targetPoint" />
          </mxGeometry>
        </mxCell>
        <mxCell id="eSfAmpDOkI9K0b-Jmtsm-4" value="" style="endArrow=none;html=1;rounded=0;exitX=0;exitY=0.5;exitDx=0;exitDy=0;entryX=1;entryY=0.5;entryDx=0;entryDy=0;" edge="1" parent="eSfAmpDOkI9K0b-Jmtsm-5" source="eSfAmpDOkI9K0b-Jmtsm-2" target="eSfAmpDOkI9K0b-Jmtsm-2">
          <mxGeometry width="50" height="50" relative="1" as="geometry">
            <mxPoint x="40" y="50" as="sourcePoint" />
            <mxPoint x="90" as="targetPoint" />
          </mxGeometry>
        </mxCell>
        <mxCell id="eSfAmpDOkI9K0b-Jmtsm-7" value="" style="group" vertex="1" connectable="0" parent="1">
          <mxGeometry x="330" y="360" width="30" height="30" as="geometry" />
        </mxCell>
        <mxCell id="eSfAmpDOkI9K0b-Jmtsm-8" value="" style="ellipse;whiteSpace=wrap;html=1;aspect=fixed;" vertex="1" parent="eSfAmpDOkI9K0b-Jmtsm-7">
          <mxGeometry width="30" height="30" as="geometry" />
        </mxCell>
        <mxCell id="eSfAmpDOkI9K0b-Jmtsm-9" value="" style="endArrow=none;html=1;rounded=0;exitX=0.5;exitY=1;exitDx=0;exitDy=0;entryX=0.5;entryY=0;entryDx=0;entryDy=0;" edge="1" parent="eSfAmpDOkI9K0b-Jmtsm-7" source="eSfAmpDOkI9K0b-Jmtsm-8" target="eSfAmpDOkI9K0b-Jmtsm-8">
          <mxGeometry width="50" height="50" relative="1" as="geometry">
            <mxPoint x="60" y="50" as="sourcePoint" />
            <mxPoint x="110" as="targetPoint" />
          </mxGeometry>
        </mxCell>
        <mxCell id="eSfAmpDOkI9K0b-Jmtsm-10" value="" style="endArrow=none;html=1;rounded=0;exitX=0;exitY=0.5;exitDx=0;exitDy=0;entryX=1;entryY=0.5;entryDx=0;entryDy=0;" edge="1" parent="eSfAmpDOkI9K0b-Jmtsm-7" source="eSfAmpDOkI9K0b-Jmtsm-8" target="eSfAmpDOkI9K0b-Jmtsm-8">
          <mxGeometry width="50" height="50" relative="1" as="geometry">
            <mxPoint x="40" y="50" as="sourcePoint" />
            <mxPoint x="90" as="targetPoint" />
          </mxGeometry>
        </mxCell>
        <mxCell id="eSfAmpDOkI9K0b-Jmtsm-15" value="" style="ellipse;shape=cloud;whiteSpace=wrap;html=1;fillColor=#1ba1e2;strokeColor=#006EAF;fontColor=#ffffff;" vertex="1" parent="1">
          <mxGeometry x="260" y="170" width="130" height="90" as="geometry" />
        </mxCell>
        <mxCell id="eSfAmpDOkI9K0b-Jmtsm-16" value="" style="group" vertex="1" connectable="0" parent="1">
          <mxGeometry x="560" y="375" width="30" height="30" as="geometry" />
        </mxCell>
        <mxCell id="eSfAmpDOkI9K0b-Jmtsm-17" value="" style="ellipse;whiteSpace=wrap;html=1;aspect=fixed;" vertex="1" parent="eSfAmpDOkI9K0b-Jmtsm-16">
          <mxGeometry width="30" height="30" as="geometry" />
        </mxCell>
        <mxCell id="eSfAmpDOkI9K0b-Jmtsm-18" value="" style="endArrow=none;html=1;rounded=0;exitX=0.5;exitY=1;exitDx=0;exitDy=0;entryX=0.5;entryY=0;entryDx=0;entryDy=0;" edge="1" parent="eSfAmpDOkI9K0b-Jmtsm-16" source="eSfAmpDOkI9K0b-Jmtsm-17" target="eSfAmpDOkI9K0b-Jmtsm-17">
          <mxGeometry width="50" height="50" relative="1" as="geometry">
            <mxPoint x="60" y="50" as="sourcePoint" />
            <mxPoint x="110" as="targetPoint" />
          </mxGeometry>
        </mxCell>
        <mxCell id="eSfAmpDOkI9K0b-Jmtsm-19" value="" style="endArrow=none;html=1;rounded=0;exitX=0;exitY=0.5;exitDx=0;exitDy=0;entryX=1;entryY=0.5;entryDx=0;entryDy=0;" edge="1" parent="eSfAmpDOkI9K0b-Jmtsm-16" source="eSfAmpDOkI9K0b-Jmtsm-17" target="eSfAmpDOkI9K0b-Jmtsm-17">
          <mxGeometry width="50" height="50" relative="1" as="geometry">
            <mxPoint x="40" y="50" as="sourcePoint" />
            <mxPoint x="90" as="targetPoint" />
          </mxGeometry>
        </mxCell>
      </root>
    </mxGraphModel>
  </diagram>
</mxfile>
